<svg xmlns="http://www.w3.org/2000/svg" viewBox="0 0 128 128"><g fill-rule="evenodd"><path d="m64.764 2.573c10.691-.505 23.342 1.772 25.698 9.316 3.863 12.365-15.716 30.394-32.778 39.243-4.182 2.17-6.717 2.765-7.773 2.617-1.009-.145-1.164-1.146-.837-1.838.608-1.299 3.358-3.949 7.043-6.827 19.206-15.001 25.45-26.005 21.825-30.467-2.326-2.855-12.062-4.84-22.172-4.84-2.745 0-9.957.637-10.698-1.904-.604-2.082 9.077-4.798 19.692-5.3" fill="#fc1004"/><path d="m42.148 59.266c9.167-.536 20.303 1.065 26.557 5.851 3.11 2.376 5.297 6.752 4.03 11.768-3.61 14.237-17.084 31.46-47.023 44.695-9.52 4.209-17.005 5.819-18.577 4.69-1.689-1.215 3.221-10.608 4.699-13.727 4.78-10.098 10.751-19.932 16.572-28.933 2.145-3.313 5.454-9.058 8.451-8.599 2.683.412-.46 6.519-2.527 10.402-3.473 6.516-13.041 24.615-9.884 25.695 6.977 2.394 39.713-22.511 34.886-36.381-2.238-6.437-16.451-7.05-25.403-7.05-4.071 0-12.964.962-13.456-2.156-.531-2.877 13.51-5.773 21.675-6.256" fill="#fc1004"/><path d="m112.949 44.014c5.502.994 9.987 1.764 11.017 4.087 1.155 2.633-4.837 2.792-7.857 2.854-14.475.28-23.204.565-23.64 5.484-.568 6.332 6.186 12.705 12.855 21.643 6.093 8.158 13.02 16.208 11.023 23.717-2.488 9.352-13.955 11.33-24.87 11.331-10.457.009-20.364-1.668-24.525-2.495-5.184-1.023-4.414-3.584-3.03-4.408 1.54-.92 10.355-.942 16.48-1.306 5.04-.298 19.68-.289 21.961-4.039 2.8-4.59-4.054-12.448-10.345-20.677-7.852-10.268-16.476-20.867-11.912-28.608 5.907-10.016 23.185-9.329 32.843-7.583" fill="#fc1004"/></g></svg>
