<svg xmlns="http://www.w3.org/2000/svg" viewBox="0 0 128 128"><g fill-rule="evenodd"><path d="M7 14v111h114v-112" fill="#344cb3"/><path d="m5.1 9.4c-1 .2-2.4 1.7-2.7 2.8v113.6c0 1 0 2.1 2.7 2.7h117.8c1.2-1 1.9-2 2.1-2.7v-113c-.3-1.3-1.8-2.7-2.7-2.8h-6.3v5.4h3.6v107.9h-112.5v-107.9h86v-5.7z" fill="#1c2c6b"/><circle cx="104.7" cy="12.2" r="12.2" stroke="#000" stroke-width=".1" fill="#fb7304"/><path d="M10.7 25.7s.2.6.6 1a10 10 0 0 1 2.2 5.6c.3 2.2.3 73.5 0 75.6-.3 2.2-1 4.2-2.2 5.5l-.5.7-.2.3h27.5a15.6 15.6 0 0 1-2.9-9 517 517 0 0 1 .1-25.8c.2 0 16.4 22.1 18.2 24.7 2.6 3.7 3.5 6.4 3.2 8.7v1.3c0 .2 30 .2 30 0l-1-1.1a94.4 94.4 0 0 1-12.2-15C57.9 76.6 51.4 67.7 51.4 67.5c-.1-.1.2-.5 2.9-3.9A9470.5 9470.5 0 0 0 73.5 40l1.6-2a64.5 64.5 0 0 1 11.5-12.2c-.1-.2-29-.1-29.2 0v1c.2 2-.6 4.1-2.6 7.2a500.9 500.9 0 0 1-19.5 24.7c-.3-.1-.2-24.3 0-25.9a13.5 13.5 0 0 1 2.4-6.2c.3-.3.4-.6.4-.7 0-.2-27.3-.3-27.4 0M92 49.3l.5.9c1.4 2 1.7 3 1.8 6.5.2 3.3.2 46.6 0 50 0 3.5-.4 4.8-1.8 6.6a6.4 6.4 0 0 0-.6 1 390.6 390.6 0 0 0 25.7-.1 4 4 0 0 0-.5-1 8.8 8.8 0 0 1-1.6-3.6c-.2-.4-.2-8.2-.3-30.5V49.3h-11.6l-11.6.1" fill="#fbfbfb"/></g></svg>
